<!-- <?xml version="1.0" encoding="UTF-8" standalone="no"?> -->
<!-- <!DOCTYPE svg PUBLIC "-//W3C//DTD SVG 1.1//EN" "http://www.w3.org/Graphics/SVG/1.1/DTD/svg11.dtd"> -->
<svg width="100%" height="100%" viewBox="0 0 85 82" version="1.1" xmlns="http://www.w3.org/2000/svg" xmlns:xlink="http://www.w3.org/1999/xlink" xml:space="preserve" xmlns:serif="http://www.serif.com/" style="fill-rule:evenodd;clip-rule:evenodd;stroke-linejoin:round;stroke-miterlimit:2;">
    <path d="M25.847,6.225c2.471,-3.238 6.464,-5.469 10.846,-6.072c6.262,-0.852 12.587,1.891 16.601,7.227c0.282,0.369 0.511,0.713 0.511,0.752c0,0.042 -0.122,0.063 -0.27,0.042c-9.027,-1.087 -13.931,-1.63 -15.372,-1.699c-2.169,-0.111 -4.572,0.181 -6.523,0.773c-3.193,0.985 -5.456,2.843 -6.855,5.667c-0.442,0.873 -2.001,5.367 -2.001,5.748c-0,0.072 -0.042,0.132 -0.091,0.132c-0.15,-0 -0.309,-1.477 -0.309,-2.995l-0,-1.479l-2.722,-0.884l0.058,-0.511c0.091,-0.655 0.641,-3.387 0.7,-3.447c0.042,-0.042 1.354,0.06 2.785,0.223l0.47,0.059l0.369,-0.734c0.389,-0.784 1.1,-1.891 1.803,-2.802Zm0.999,8.479c1.18,-2.983 3.783,-4.751 7.815,-5.304c2.182,-0.294 4.242,-0.192 9.886,0.5c0.208,0.024 0.476,0.059 0.775,0.094c0.666,0.077 1.487,0.175 2.127,0.258c7.004,0.835 10.007,1.219 10.067,1.288c0.032,0.038 0.522,1.918 1.083,4.187l1.009,4.111l-0.549,0.996c-0.892,1.587 -2.734,4.32 -4.073,6.008c-1.031,1.315 -4.094,4.943 -7.147,8.473c-1.51,1.737 -2.269,2.429 -3.16,2.851c-2.493,1.197 -5.424,1.054 -8.438,-0.422c-2.161,-1.055 -4.233,-2.823 -6.603,-5.635c-4.014,-4.773 -5.344,-8.601 -4.313,-12.462c0.438,-1.646 1.232,-4.198 1.521,-4.943Zm28.289,6.801c-0.049,0 -2.924,-0.48 -6.384,-1.065l-0.431,-0.073l-0.011,0c-3.279,-0.549 -6.033,-1.013 -6.234,-1.04c-0.331,-0.053 -0.38,-0.032 -0.53,0.281c-0.107,0.202 -0.361,0.69 -0.668,1.282l-1.132,2.175c-1.162,2.21 -1.951,3.798 -1.921,3.836c0.039,0.031 0.961,0.202 7.224,1.288l2.2,0.383l0.01,-0l0.003,0.003l0.004,0c0.752,0.13 1.424,0.244 1.827,0.317c0.791,0.14 1.539,0.251 1.66,0.251c0.23,0 0.38,-0.241 2.403,-3.92c0.709,-1.284 1.521,-2.743 1.8,-3.244c0.149,-0.261 0.229,-0.474 0.18,-0.474Zm-37.005,3.559c-2.2,1.117 -4.403,2.272 -4.905,2.561c-5.152,3.046 -8.093,6.081 -10.255,10.582c-1.402,2.923 -2.132,5.806 -2.401,9.575c-0.07,1.023 -1.191,12.666 -0.081,17.735c1.025,4.677 3.275,10.054 6.744,12.681c4.374,3.312 24.936,3.568 24.936,3.568c17.401,0.007 31.642,-0 31.642,-0.031c-0,-0.171 -0.609,-1.215 -1.078,-1.848c-1.734,-2.333 -3.913,-3.659 -7.025,-4.282c-1.201,-0.23 -4.386,-0.292 -6.057,-0.112c-0.71,0.07 -1.319,0.123 -1.34,0.101c-0.038,-0.031 0.421,-2.151 1.19,-5.453c0.171,-0.695 0.325,-1.393 0.464,-2.094l0.068,-0.42l-0.4,-0c-0.329,-0 -0.783,0.23 -2.722,1.395c-1.291,0.776 -2.391,1.448 -2.453,1.508c-0.06,0.062 -0.339,1.235 -0.61,2.604l-0.501,2.482l-8.103,0.02l-8.108,0.018l1.901,-0.63c5.754,-1.932 10.679,-4.335 17.812,-8.675c1.212,-0.731 2.262,-1.315 2.352,-1.284c0.161,0.049 7.985,1.426 9.726,1.709l1.082,0.181l0.571,-0.495c0.227,-0.191 0.609,-0.526 0.968,-0.838c0.147,-0.125 0.286,-0.247 0.41,-0.356c0.763,-0.674 3.305,-2.914 3.496,-3.077c0.107,-0.09 -0.011,-0.4 -0.651,-1.726c-0.261,-0.533 -0.432,-0.975 -0.38,-0.975c0.06,0 0.871,0.161 1.81,0.352c0.94,0.202 1.731,0.33 1.762,0.299c0.069,-0.07 0.518,-2.59 0.481,-2.642c-0.021,-0.021 -0.791,-0.198 -1.714,-0.401l-1.671,-0.361l0.06,-0.544c0.031,-0.291 0.073,-0.58 0.09,-0.643c0.022,-0.107 -0.33,-0.198 -2.359,-0.641c-0.753,-0.163 -0.791,-0.181 -0.933,-0.532c-0.066,-0.178 -0.499,-1.121 -0.996,-2.214l-0.233,-0.512l-1.09,-2.36l-2.182,-0.41l-1.637,-0.307l-0.003,0c-0.504,-0.095 -1.009,-0.188 -1.514,-0.278l-0.971,-0.182l-0.07,-0.661c-0.369,-3.519 -1.371,-7.167 -2.722,-9.959l-0.567,-1.166l-0.073,1.507c-0.036,0.767 -0.108,2.823 -0.175,4.717l-0.013,0.418c-0.102,3.599 -0.292,7.334 -0.512,10.24c-0.059,0.822 -0.101,1.609 -0.08,1.727c0.042,0.191 0.202,0.08 1.413,-0.884l1.358,-1.104l3.094,0.762c4.1,1.016 5.462,1.368 5.563,1.459c0.069,0.059 -0.422,1.577 -0.61,1.887c-0.069,0.1 -0.292,0.08 -1.061,-0.081c-0.54,-0.111 -1.041,-0.201 -1.101,-0.201c-0.069,-0 -0.201,0.261 -0.298,0.574c-0.251,0.76 -0.513,1.516 -0.784,2.269c-0.487,1.359 -0.64,1.678 -0.769,1.64c-0.09,-0.031 -1.75,-0.372 -3.682,-0.766l-3.524,-0.72l-6.735,0.713c-9.775,1.034 -13.078,1.354 -13.137,1.295c-0.031,-0.031 0.07,-0.591 0.209,-1.245c0.511,-2.333 0.432,-4.231 -0.267,-6.249c-1.042,-3.007 -6.625,-13.266 -8.888,-16.339c-1.431,-1.939 -3.293,-3.499 -5.503,-4.624c-0.453,-0.229 -0.512,-0.302 -0.401,-0.409c0.08,-0.074 0.829,-0.597 1.672,-1.157c1.158,-0.775 1.58,-1.005 1.751,-0.964c0.351,0.091 2.732,1.887 3.502,2.632c2.102,2.071 7.695,9.948 12.659,17.864c0.891,1.417 1.292,1.97 1.42,1.97c0.22,-0 4.505,-0.633 7.805,-1.145c1.242,-0.202 2.513,-0.384 2.833,-0.421c0.369,-0.042 0.571,-0.111 0.571,-0.202c-0,-0.161 0.769,-9.304 0.887,-10.64c0.063,-0.555 0.081,-1.014 0.063,-1.035c-0.021,-0.021 -0.282,0.139 -0.571,0.362c-1.5,1.114 -3.091,1.567 -5.485,1.556c-4.233,-0.011 -8.115,-1.918 -12.027,-5.917c-3.912,-4.01 -6.325,-8.32 -6.745,-12.079c-0.029,-0.342 -0.088,-0.644 -0.13,-0.662c-0.031,-0.021 -1.862,0.873 -4.062,1.987l-0,0.003Zm-10.958,33.479c-0,0.292 0.88,3.758 1.451,5.719c1.01,3.446 2.19,6.954 3.391,10.028c0.362,0.923 0.661,1.71 0.661,1.727c0,0.031 -0.57,0.041 -1.26,0.031l-1.26,-0.031l-0.401,-1.003c-1.771,-4.432 -4.445,-12.925 -4.974,-15.797c-0.006,-0.044 -0.018,-0.087 -0.024,-0.122c-0.024,-0.104 -0.038,-0.174 -0.013,-0.226c0.048,-0.112 0.267,-0.149 0.96,-0.264l0.004,0l0.01,-0.004c0.118,-0.021 0.253,-0.041 0.403,-0.066l0.029,-0.007c0.772,-0.122 0.96,-0.153 1.008,-0.087c0.015,0.024 0.015,0.055 0.015,0.098l-0,0.004Zm53.167,0.615c0.199,0.028 0.369,0.091 0.369,0.13c-0,0.1 -1.201,2.742 -1.291,2.842c-0.07,0.072 -1.49,-0.18 -1.591,-0.28c-0.038,-0.039 1.221,-2.511 1.41,-2.744c0.073,-0.09 0.223,-0.121 0.41,-0.08c0.112,0.028 0.286,0.056 0.45,0.087c0.086,0.014 0.17,0.031 0.243,0.045Zm10.854,-27.349c0.062,-0.055 0.133,-0.1 0.215,-0.153c0.036,-0.02 0.07,-0.045 0.108,-0.07c0.704,-0.483 1.762,-0.202 2.193,0.571l0.241,0.432l0.02,6.742c0,3.707 -0.02,6.893 -0.062,7.085c-0.241,1.096 -1.58,1.628 -2.44,0.973c-0.032,-0.022 -0.064,-0.045 -0.094,-0.069c-0.073,-0.047 -0.14,-0.102 -0.202,-0.163c-0.365,-0.365 -0.365,-1.096 -0.355,-6.471l-0,-1.887l0.003,-0.71l0,-0.004c0.004,-5.197 0.004,-5.938 0.373,-6.276Zm10.93,2.228c-0.369,0.139 -0.668,0.581 -1.309,1.918c-0.379,0.793 -0.689,1.469 -0.689,1.49c0,0.017 -0.271,0.602 -0.602,1.305c-0.207,0.428 -0.407,0.86 -0.599,1.295c0,0.021 -0.17,0.414 -0.393,0.873c-1.517,3.297 -3.812,8.33 -3.912,8.644c-0.289,0.804 0.302,1.678 1.183,1.768c0.748,0.07 1.19,-0.223 1.601,-1.034c0.209,-0.414 2.58,-5.527 5.211,-11.226c1.622,-3.515 1.692,-3.756 1.313,-4.379c-0.363,-0.584 -1.17,-0.884 -1.804,-0.655l0,0.001Zm-20.763,1.88c0,-0.675 0.121,-0.894 0.699,-1.267c0.401,-0.261 1.041,-0.191 1.493,0.149c0.268,0.213 0.46,0.554 0.961,1.751c0.237,0.561 0.595,1.406 1.222,2.876l0.014,0.038l0.004,-0l0.01,0.024l0.003,0.011c0.797,1.875 2.023,4.751 3.958,9.307c0.752,1.759 0.822,2.172 0.501,2.705c-0.4,0.65 -1.479,0.804 -2.082,0.299l-0.031,-0.024c-0.038,-0.032 -0.076,-0.066 -0.111,-0.101c-0.223,-0.22 -0.358,-0.529 -1.364,-2.893l-0.025,-0.055c-0.215,-0.498 -0.553,-1.292 -0.957,-2.231l-0.003,-0.004l-0.004,-0.014c-0.644,-1.504 -1.448,-3.38 -2.169,-5.037c-1.981,-4.612 -2.109,-4.963 -2.12,-5.534l0.001,0Zm18.072,15.343c-0.347,0.21 -2.248,1.93 -2.878,2.591c-0.182,0.191 -0.363,0.494 -0.394,0.686c-0.08,0.421 0.25,1.123 0.65,1.364c0.384,0.222 0.982,0.222 1.373,-0.018c0.452,-0.282 2.833,-2.503 3.062,-2.864c0.401,-0.645 0.07,-1.507 -0.692,-1.832c-0.449,-0.187 -0.721,-0.17 -1.121,0.073Zm-9.756,8.08c0,-1.347 0.759,-2.343 2.012,-2.662c0.822,-0.203 1.911,0.097 2.503,0.681c1.629,1.647 0.658,4.432 -1.613,4.613c-1.162,0.1 -2.062,-0.384 -2.613,-1.386c-0.247,-0.453 -0.289,-0.654 -0.289,-1.246Zm8.574,-0.505c-0.86,0.372 -0.822,1.849 0.059,2.311c0.25,0.123 0.72,0.15 2.583,0.15c2.081,0 2.311,-0.018 2.6,-0.198c0.873,-0.533 0.793,-1.88 -0.119,-2.273c-0.48,-0.199 -4.664,-0.199 -5.123,0.01Zm-6.645,7.307c0.122,-0.182 0.361,-0.404 0.54,-0.484c0.57,-0.251 1.28,-0.028 1.642,0.522c0.199,0.313 0.261,1.166 0.432,6.443c0.098,3.105 0.098,3.467 -0.053,3.745c-0.341,0.665 -1.34,0.927 -1.889,0.495c-0.523,-0.414 -0.561,-0.592 -0.662,-3.477l-0.007,-0.205c-0.216,-6.232 -0.23,-6.653 -0.052,-6.962c0.007,-0.011 0.014,-0.022 0.021,-0.036l0.02,-0.031l0.008,-0.01Zm-4.358,0.724c-0.383,0.171 -4.616,3.644 -4.985,4.097c-0.449,0.532 -0.299,1.587 0.261,1.901c0.79,0.42 1.18,0.309 2.402,-0.683c0.529,-0.431 1.618,-1.316 2.43,-1.969c0.8,-0.655 1.531,-1.328 1.611,-1.477c0.299,-0.595 0.08,-1.528 -0.431,-1.8c-0.348,-0.191 -0.961,-0.223 -1.288,-0.069Zm7.874,1.316c-0,-0.624 0.4,-1.187 0.96,-1.358c0.188,-0.052 0.275,-0.08 0.362,-0.083c0.09,-0 0.181,0.027 0.397,0.083c0.073,0.021 0.133,0.031 0.188,0.052c0.498,0.161 4.705,7.276 5.596,9.053c0.244,0.487 0.156,1.136 -0.251,1.614c-0.311,0.366 -1.666,0.434 -2.299,-0.419c-0.139,-0.181 1.249,2.151 -0,0c-1.125,-1.947 -2.259,-3.89 -3.401,-5.828c-1.424,-2.411 -1.552,-2.673 -1.552,-3.114Z"/>
    <style>
        path { fill: #000; }
        @media (prefers-color-scheme: dark) {
            path { fill: #FFF; }
        }
    </style>
</svg>